<svg width="32" height="32" viewBox="-0.06 0 0.96 0.96" xmlns="http://www.w3.org/2000/svg">
  <path d="m0.555 0.959 0.289 -0.062L0.739 0.187a0.009 0.009 0 0 0 -0.009 -0.008L0.654 0.174 0.596 0.117A0.015 0.015 0 0 0 0.591 0.114L0.554 0.958h0.001zM0.41 0.452A0.168 0.168 0 0 0 0.339 0.435C0.282 0.435 0.279 0.471 0.279 0.481c0 0.05 0.13 0.069 0.13 0.185 0 0.092 -0.058 0.15 -0.136 0.15H0.267a0.187 0.187 0 0 1 -0.136 -0.058L0.157 0.674c0.025 0.022 0.056 0.037 0.09 0.042h0.002A0.038 0.038 0 0 0 0.287 0.679C0.287 0.614 0.181 0.611 0.181 0.505 0.179 0.415 0.243 0.328 0.374 0.328a0.158 0.158 0 0 1 0.076 0.015L0.449 0.342 0.411 0.451 0.41 0.452zM0.389 0.034a0.027 0.027 0 0 1 0.016 0.006C0.366 0.057 0.322 0.104 0.305 0.198a2.513 2.513 0 0 1 -0.075 0.023C0.25 0.15 0.3 0.034 0.389 0.034zm0.049 0.118v0.006l-0.096 0.03A0.166 0.166 0 0 1 0.425 0.068L0.426 0.067a0.23 0.23 0 0 1 0.012 0.084V0.15zM0.459 0.062C0.487 0.065 0.505 0.096 0.516 0.132a0.828 0.828 0 0 1 -0.046 0.014v-0.016A0.232 0.232 0 0 0 0.458 0.059l0.001 0.002zm0.12 0.051L0.576 0.114a0.546 0.546 0 0 0 -0.029 0.009C0.53 0.073 0.5 0.027 0.447 0.027H0.442A0.066 0.066 0 0 0 0.393 0C0.269 0 0.209 0.155 0.19 0.234L0.104 0.261C0.077 0.27 0.076 0.27 0.073 0.296L0 0.858l0.542 0.102L0.579 0.114z"/>
</svg>
